<svg preserveAspectRatio="none" width="30" height="30" viewBox="0 0 30 30" fill="none" xmlns="http://www.w3.org/2000/svg">
<path d="M16.3385 8.43428C15.9741 8.54238 15.459 8.62588 14.8004 8.68506C14.83 7.216 15.2131 5.94885 15.9554 4.88537C16.684 3.82875 17.9148 3.09867 19.6499 2.69531C19.6607 2.72355 19.6747 2.7801 19.688 2.85861C19.7015 2.93713 19.7149 2.99098 19.7258 3.02062C19.7258 3.05965 19.7285 3.10951 19.7338 3.16869C19.7366 3.2284 19.7392 3.27686 19.7392 3.31764C19.7392 3.91893 19.5961 4.58842 19.3103 5.32787C19.016 6.06732 18.557 6.74754 17.9364 7.36857C17.4046 7.89984 16.8702 8.25609 16.3385 8.43428ZM22.9641 18.8007C22.2843 17.8262 21.9442 16.725 21.9442 15.5027C21.9442 14.3882 22.2628 13.3678 22.9049 12.4421C23.2504 11.9374 23.8117 11.3571 24.5915 10.6962C24.0787 10.0645 23.5662 9.57357 23.0534 9.21727C22.1249 8.57742 21.0751 8.25615 19.9013 8.25615C19.2021 8.25615 18.3491 8.4235 17.3453 8.75824C16.3794 9.09568 15.6721 9.26127 15.2293 9.26127C14.8946 9.26127 14.2147 9.11455 13.189 8.81795C12.1529 8.52182 11.2811 8.37504 10.5713 8.37504C8.87373 8.37504 7.47562 9.08443 6.36908 10.5042C5.25451 11.9428 4.69852 13.7888 4.69852 16.0341C4.69852 18.423 5.42455 20.9003 6.87387 23.4749C8.34211 26.0281 9.82641 27.3047 11.3242 27.3047C11.8263 27.3047 12.4792 27.1373 13.2756 26.8026C14.0743 26.4764 14.7761 26.3139 15.3778 26.3139C16.0177 26.3139 16.7625 26.4718 17.6097 26.7864C18.5058 27.1023 19.1968 27.2598 19.6801 27.2598C20.9432 27.2598 22.2085 26.2942 23.4824 24.3616C24.3084 23.1294 24.9155 21.8977 25.3014 20.6655C24.4215 20.3982 23.6444 19.7776 22.9641 18.8007Z" fill="#181C14"/>
</svg>
