<svg preserveAspectRatio="none" width="835" height="625" viewBox="0 0 835 625" fill="none" xmlns="http://www.w3.org/2000/svg">
<path d="M146 0H344C346.761 0 349 2.23858 349 5V35C349 37.7614 346.761 40 344 40H5C2.23858 40 0 37.7614 0 35V5C0 2.23858 2.23858 0 5 0H15.1739M577.5 585H830C832.761 585 835 587.239 835 590V620C835 622.761 832.761 625 830 625H491C488.239 625 486 622.761 486 620V590C486 587.239 488.239 585 491 585H501.174M514.514 583.734C514.514 584.219 514.397 584.674 514.163 585.099C513.938 585.524 513.578 585.866 513.084 586.126C512.599 586.386 511.983 586.516 511.238 586.516V586.516C510.398 586.516 509.717 587.197 509.717 588.037V589.09C509.717 589.593 509.31 590 508.807 590V590C508.304 590 507.897 589.593 507.897 589.09V584.267C507.897 582.422 509.393 580.926 511.238 580.926V580.926C511.94 580.926 512.538 581.047 513.032 581.29C513.526 581.533 513.894 581.866 514.137 582.291C514.388 582.716 514.514 583.197 514.514 583.734ZM511.16 585.047C511.663 585.047 512.035 584.934 512.278 584.709C512.521 584.475 512.642 584.15 512.642 583.734C512.642 582.85 512.148 582.408 511.16 582.408H511.036C510.308 582.408 509.717 582.999 509.717 583.728V583.728C509.717 584.456 510.308 585.047 511.036 585.047H511.16ZM515.338 586.373C515.338 585.645 515.481 584.999 515.767 584.436C516.062 583.873 516.456 583.439 516.95 583.136C517.453 582.833 518.012 582.681 518.627 582.681C519.165 582.681 519.633 582.789 520.031 583.006C520.187 583.089 520.331 583.18 520.462 583.279C520.658 583.427 521.006 583.297 521.006 583.052V583.052C521.006 582.912 521.12 582.798 521.26 582.798H521.923C522.429 582.798 522.839 583.208 522.839 583.714V589.083C522.839 589.59 522.429 590 521.923 590H521.257C521.118 590 521.006 589.888 521.006 589.749V589.749C521.006 589.504 520.647 589.373 520.451 589.522C520.323 589.62 520.183 589.71 520.031 589.792C519.624 590.009 519.152 590.117 518.614 590.117C518.008 590.117 517.453 589.961 516.95 589.649C516.456 589.337 516.062 588.899 515.767 588.336C515.481 587.764 515.338 587.11 515.338 586.373ZM521.006 586.399C521.006 585.957 520.919 585.58 520.746 585.268C520.573 584.947 520.339 584.705 520.044 584.54C519.75 584.367 519.433 584.28 519.095 584.28C518.757 584.28 518.445 584.362 518.159 584.527C517.873 584.692 517.639 584.934 517.457 585.255C517.284 585.567 517.197 585.94 517.197 586.373C517.197 586.806 517.284 587.188 517.457 587.517C517.639 587.838 517.873 588.085 518.159 588.258C518.454 588.431 518.766 588.518 519.095 588.518C519.433 588.518 519.75 588.436 520.044 588.271C520.339 588.098 520.573 587.855 520.746 587.543C520.919 587.222 521.006 586.841 521.006 586.399ZM527.373 590.117C526.783 590.117 526.255 590.013 525.787 589.805C525.319 589.588 524.946 589.298 524.669 588.934C524.607 588.851 524.552 588.765 524.503 588.677C524.239 588.203 524.691 587.725 525.234 587.725V587.725C525.703 587.725 526.093 588.126 526.463 588.414V588.414C526.705 588.596 527.004 588.687 527.36 588.687C527.706 588.687 527.975 588.618 528.166 588.479C528.365 588.34 528.465 588.163 528.465 587.946C528.465 587.712 528.343 587.539 528.101 587.426C527.867 587.305 527.49 587.175 526.97 587.036C526.432 586.906 525.99 586.772 525.644 586.633C525.306 586.494 525.011 586.282 524.76 585.996C524.517 585.71 524.396 585.324 524.396 584.839C524.396 584.44 524.508 584.076 524.734 583.747C524.968 583.418 525.297 583.158 525.722 582.967C526.155 582.776 526.662 582.681 527.243 582.681C528.101 582.681 528.785 582.898 529.297 583.331C529.572 583.56 529.781 583.832 529.923 584.149C530.131 584.613 529.704 585.06 529.196 585.06V585.06C528.747 585.06 528.393 584.655 528.036 584.384V584.384C527.828 584.211 527.546 584.124 527.191 584.124C526.861 584.124 526.606 584.185 526.424 584.306C526.25 584.427 526.164 584.596 526.164 584.813C526.164 585.056 526.285 585.242 526.528 585.372C526.77 585.493 527.147 585.619 527.659 585.749C528.179 585.879 528.608 586.013 528.946 586.152C529.284 586.291 529.574 586.507 529.817 586.802C530.068 587.088 530.198 587.469 530.207 587.946C530.207 588.362 530.09 588.735 529.856 589.064C529.63 589.393 529.301 589.653 528.868 589.844C528.443 590.026 527.945 590.117 527.373 590.117ZM534.457 590.117C533.867 590.117 533.339 590.013 532.871 589.805C532.403 589.588 532.03 589.298 531.753 588.934C531.691 588.851 531.636 588.765 531.587 588.677C531.323 588.203 531.775 587.725 532.318 587.725V587.725C532.786 587.725 533.177 588.126 533.547 588.414V588.414C533.789 588.596 534.088 588.687 534.444 588.687C534.79 588.687 535.059 588.618 535.25 588.479C535.449 588.34 535.549 588.163 535.549 587.946C535.549 587.712 535.427 587.539 535.185 587.426C534.951 587.305 534.574 587.175 534.054 587.036C533.516 586.906 533.074 586.772 532.728 586.633C532.39 586.494 532.095 586.282 531.844 585.996C531.601 585.71 531.48 585.324 531.48 584.839C531.48 584.44 531.592 584.076 531.818 583.747C532.052 583.418 532.381 583.158 532.806 582.967C533.239 582.776 533.746 582.681 534.327 582.681C535.185 582.681 535.869 582.898 536.381 583.331C536.656 583.56 536.865 583.832 537.007 584.149C537.215 584.613 536.788 585.06 536.28 585.06V585.06C535.831 585.06 535.477 584.655 535.12 584.384V584.384C534.912 584.211 534.63 584.124 534.275 584.124C533.945 584.124 533.69 584.185 533.508 584.306C533.334 584.427 533.248 584.596 533.248 584.813C533.248 585.056 533.369 585.242 533.612 585.372C533.854 585.493 534.231 585.619 534.743 585.749C535.263 585.879 535.692 586.013 536.03 586.152C536.368 586.291 536.658 586.507 536.901 586.802C537.152 587.088 537.282 587.469 537.291 587.946C537.291 588.362 537.174 588.735 536.94 589.064C536.714 589.393 536.385 589.653 535.952 589.844C535.527 590.026 535.029 590.117 534.457 590.117ZM552.951 590.117C552.258 590.117 551.634 589.965 551.079 589.662C550.525 589.35 550.087 588.912 549.766 588.349C549.454 587.786 549.298 587.136 549.298 586.399C549.298 585.662 549.459 585.012 549.779 584.449C550.109 583.886 550.555 583.452 551.118 583.149C551.682 582.837 552.31 582.681 553.003 582.681C553.697 582.681 554.325 582.837 554.888 583.149C555.452 583.452 555.894 583.886 556.214 584.449C556.544 585.012 556.708 585.662 556.708 586.399C556.708 587.136 556.539 587.786 556.201 588.349C555.872 588.912 555.421 589.35 554.849 589.662C554.286 589.965 553.653 590.117 552.951 590.117ZM552.951 588.531C553.281 588.531 553.588 588.453 553.874 588.297C554.169 588.132 554.403 587.89 554.576 587.569C554.75 587.248 554.836 586.858 554.836 586.399C554.836 585.714 554.654 585.19 554.29 584.826C553.935 584.453 553.497 584.267 552.977 584.267C552.457 584.267 552.02 584.453 551.664 584.826C551.318 585.19 551.144 585.714 551.144 586.399C551.144 587.084 551.313 587.612 551.651 587.985C551.998 588.349 552.431 588.531 552.951 588.531ZM560.773 583.019C560.651 583.09 560.537 583.17 560.43 583.258C560.238 583.417 559.863 583.293 559.863 583.044V583.044C559.863 582.908 559.753 582.798 559.617 582.798H558.953C558.451 582.798 558.043 583.205 558.043 583.708V589.09C558.043 589.593 558.451 590 558.953 590V590C559.456 590 559.863 589.593 559.863 589.09V586.412C559.863 585.745 560.006 585.277 560.292 585.008C560.587 584.739 561.02 584.605 561.592 584.605V584.605C561.858 584.605 562.073 584.39 562.073 584.124V583.649C562.073 583.122 561.632 582.67 561.136 582.851C561.01 582.897 560.89 582.953 560.773 583.019ZM562.831 586.373C562.831 585.645 562.974 584.999 563.26 584.436C563.555 583.873 563.954 583.439 564.456 583.136C564.959 582.833 565.518 582.681 566.133 582.681C566.601 582.681 567.048 582.785 567.472 582.993V582.993C567.85 583.17 568.486 582.908 568.486 582.49V581.23C568.486 580.761 568.867 580.38 569.337 580.38H569.409C569.919 580.38 570.332 580.793 570.332 581.303V589.077C570.332 589.587 569.919 590 569.409 590H568.726C568.594 590 568.486 589.893 568.486 589.76V589.76C568.486 589.52 568.121 589.393 567.931 589.54C567.811 589.632 567.68 589.716 567.537 589.792C567.13 590.009 566.658 590.117 566.12 590.117C565.514 590.117 564.959 589.961 564.456 589.649C563.954 589.337 563.555 588.899 563.26 588.336C562.974 587.764 562.831 587.11 562.831 586.373ZM568.499 586.399C568.499 585.957 568.413 585.58 568.239 585.268C568.066 584.947 567.832 584.705 567.537 584.54C567.243 584.367 566.926 584.28 566.588 584.28C566.25 584.28 565.938 584.362 565.652 584.527C565.366 584.692 565.132 584.934 564.95 585.255C564.777 585.567 564.69 585.94 564.69 586.373C564.69 586.806 564.777 587.188 564.95 587.517C565.132 587.838 565.366 588.085 565.652 588.258C565.947 588.431 566.259 588.518 566.588 588.518C566.926 588.518 567.243 588.436 567.537 588.271C567.832 588.098 568.066 587.855 568.239 587.543C568.413 587.222 568.499 586.841 568.499 586.399ZM542.257 583.673V583.673C541.965 584.836 540.301 584.849 540.03 583.682L539.98 583.468C539.889 583.076 539.539 582.798 539.137 582.798V582.798C538.558 582.798 538.142 583.354 538.306 583.909L539.823 589.067C539.986 589.62 540.493 590 541.07 590H541.201C541.715 590 542.164 589.653 542.294 589.156V589.156C542.588 588.03 544.186 588.03 544.479 589.156V589.156C544.609 589.653 545.058 590 545.572 590H545.696C546.269 590 546.773 589.622 546.934 589.072L548.462 583.846C548.615 583.322 548.222 582.798 547.677 582.798V582.798C547.296 582.798 546.966 583.06 546.879 583.431L546.823 583.674C546.553 584.833 544.901 584.823 544.615 583.667V583.667C544.49 583.159 544.033 582.798 543.509 582.798H543.374C542.846 582.798 542.385 583.162 542.257 583.673Z" stroke="#181C14"/>
</svg>
