<svg preserveAspectRatio="none" width="15" height="11" viewBox="0 0 15 11" fill="none" xmlns="http://www.w3.org/2000/svg">
<path d="M14.9648 5.76674C13.1953 3.50404 10.75 0.903229 7.5 0.903229C6.1875 0.903229 4.98438 1.31502 3.71484 2.19496C2.64453 2.94053 1.54688 3.98952 0.0390627 5.71472L2.38419e-07 5.75807L0.261719 6.05716C2.41406 8.50192 4.27344 10.6129 7.5 10.6129C8.92578 10.6129 10.3086 10.0971 11.7266 9.03508C12.9336 8.12914 13.9609 6.98045 14.7852 6.05282L15 5.81442L14.9648 5.76674ZM7.5 9.22581C5.77734 9.22581 4.375 7.66966 4.375 5.75807C4.375 3.84647 5.77734 2.29033 7.5 2.29033C9.22266 2.29033 10.625 3.84647 10.625 5.75807C10.625 7.66966 9.22266 9.22581 7.5 9.22581Z" fill="black"/>
<path d="M7.28125 4.49234C7.28125 4.19325 7.35937 3.9115 7.49609 3.67742C6.46094 3.67742 5.625 4.61371 5.625 5.76674C5.625 6.91976 6.46484 7.85172 7.49609 7.85172C8.52734 7.85172 9.37109 6.91976 9.37109 5.76674C9.16016 5.91845 8.90625 6.00515 8.63672 6.00515C7.89063 6.00081 7.28125 5.3246 7.28125 4.49234Z" fill="black"/>
</svg>
