<svg preserveAspectRatio="none" width="15" height="10" viewBox="0 0 15 10" fill="none" xmlns="http://www.w3.org/2000/svg">
<path d="M14.9648 4.86351C13.1953 2.60081 10.75 0 7.5 0C6.1875 0 4.98438 0.411795 3.71484 1.29173C2.64453 2.0373 1.54687 3.08629 0.0390625 4.81149L0 4.85484L0.261719 5.15393C2.41406 7.59869 4.27344 9.70968 7.5 9.70968C8.92578 9.70968 10.3086 9.19385 11.7266 8.13186C12.9336 7.22591 13.9609 6.07722 14.7852 5.1496L15 4.91119L14.9648 4.86351ZM7.5 8.32258C5.77734 8.32258 4.375 6.76643 4.375 4.85484C4.375 2.94325 5.77734 1.3871 7.5 1.3871C9.22266 1.3871 10.625 2.94325 10.625 4.85484C10.625 6.76643 9.22266 8.32258 7.5 8.32258Z" fill="black"/>
</svg>
